<svg width="16" height="18" viewBox="0 0 16 18" fill="none" xmlns="http://www.w3.org/2000/svg">
<path d="M3.88617 16.4752C3.88617 16.7699 4.15144 17.0352 4.44617 17.0352H5.97881C6.27354 17.0352 6.53881 16.7699 6.53881 16.4752L6.53881 0.58884C6.53881 0.0877876 5.91986 -0.148001 5.56617 0.235157L0.143017 6.4541C-0.181194 6.80779 0.0840692 7.36779 0.555648 7.36779H3.88617L3.88617 16.4752Z" fill="#4CB163"/>
<path d="M11.6672 0.559368C11.6672 0.264631 11.402 -0.00063324 11.1072 -0.00063324H9.60407C9.27986 -0.00063324 9.04407 0.264631 9.04407 0.559368L9.04407 16.4752C9.04407 16.9762 9.66302 17.212 10.0167 16.8288L15.4104 10.5804C15.7346 10.2267 15.4693 9.66674 14.9978 9.66674H11.6672L11.6672 0.559368Z" fill="#4CB163"/>
</svg>
